<?xml version="1.0" standalone="no"?>
<!DOCTYPE svg PUBLIC "-//W3C//DTD SVG 20010904//EN"
 "http://www.w3.org/TR/2001/REC-SVG-20010904/DTD/svg10.dtd">
<svg version="1.0" xmlns="http://www.w3.org/2000/svg"
 width="1223.000000pt" height="1223.000000pt" viewBox="0 0 1223.000000 1223.000000"
 preserveAspectRatio="xMidYMid meet">
<metadata>
Created by potrace 1.14, written by Peter Selinger 2001-2017
</metadata>
<g transform="translate(0.000000,1223.000000) scale(0.100000,-0.100000)"
fill="#000000" stroke="none">
<path d="M4445 11663 c-49 -2 -92 -9 -96 -15 -4 -6 -12 -59 -20 -119 -12 -109
-13 -109 -40 -109 -14 0 -120 14 -234 30 -114 17 -212 30 -217 30 -7 0 -8 27
-3 76 l7 75 -34 -5 c-18 -3 -78 -13 -133 -21 -99 -15 -273 -58 -301 -73 -8 -5
72 -20 193 -36 115 -16 212 -32 217 -36 8 -8 -53 -471 -64 -490 -3 -5 -45 -3
-100 5 -52 8 -96 13 -97 11 -3 -3 134 -68 183 -86 20 -8 24 -6 24 10 0 12 7
20 18 20 9 0 122 -14 251 -31 l233 -32 -6 -77 c-6 -69 -5 -78 11 -83 162 -48
480 -137 493 -137 14 0 19 18 30 105 7 58 16 107 19 110 6 3 492 -63 498 -68
1 -2 -7 -61 -17 -132 -11 -72 -20 -133 -20 -136 0 -4 15 -9 33 -12 17 -3 131
-26 252 -51 121 -25 227 -46 236 -46 13 0 20 28 36 146 12 80 24 148 26 151 7
6 473 -59 488 -68 7 -4 3 -59 -12 -159 -16 -114 -19 -154 -10 -159 7 -4 112
-22 234 -40 122 -18 238 -35 257 -37 l35 -6 21 157 c12 86 24 159 28 162 4 4
117 -8 251 -27 213 -30 245 -36 245 -52 0 -9 -9 -79 -20 -154 -11 -75 -18
-139 -15 -142 8 -8 513 -55 528 -49 8 3 19 53 31 141 10 75 22 138 25 141 8 4
478 -62 490 -69 4 -3 0 -58 -9 -123 -11 -73 -14 -120 -8 -124 11 -7 518 -23
524 -16 3 2 10 45 16 96 l11 91 31 -1 c17 0 130 -15 251 -33 l220 -32 -3 -52
-4 -52 46 0 c82 0 463 47 454 56 -2 1 -106 17 -231 35 -213 30 -227 34 -227
53 1 12 15 125 33 251 30 213 34 230 52 228 109 -12 471 -67 476 -72 4 -3 -8
-112 -27 -241 -18 -129 -33 -238 -34 -243 0 -8 21 -4 139 30 188 54 291 131
291 220 0 63 -99 186 -175 218 -16 7 -58 16 -92 20 l-63 7 0 37 0 38 -117 56
c-116 55 -323 139 -374 152 -31 8 -33 1 -44 -108 -5 -43 -13 -71 -21 -74 -26
-10 -485 59 -491 74 -3 7 2 64 11 126 21 147 21 154 -6 160 -13 2 -129 32
-257 66 -129 33 -236 59 -236 58 -1 -1 -12 -78 -25 -172 -12 -93 -26 -174 -30
-179 -8 -8 -471 53 -490 64 -7 4 22 248 44 371 l5 27 -187 36 c-273 52 -347
65 -349 62 -2 -1 -16 -96 -33 -211 -17 -115 -31 -209 -33 -210 -3 -2 -481 65
-483 68 -2 1 11 98 28 215 17 117 28 215 26 217 -8 8 -540 77 -546 71 -3 -4
-18 -97 -34 -208 -15 -110 -29 -202 -30 -204 -4 -3 -490 65 -495 70 -3 2 7 84
21 181 14 98 26 187 26 200 0 21 -6 23 -82 29 -223 19 -453 35 -456 31 -2 -2
-15 -85 -30 -184 -21 -148 -28 -181 -41 -181 -9 1 -119 16 -246 34 -226 32
-230 33 -233 57 -1 13 6 85 17 159 11 74 19 135 18 136 -6 4 -375 10 -452 7z
m368 -343 c4 0 7 -11 7 -25 0 -31 -61 -468 -66 -474 -2 -2 -112 11 -244 29
-197 28 -240 36 -240 49 0 20 60 462 65 477 2 7 78 0 237 -22 128 -18 236 -33
241 -34z m815 -114 c127 -18 234 -35 237 -38 5 -5 -62 -488 -68 -495 -2 -2
-116 13 -253 32 -137 19 -249 35 -250 35 0 0 16 113 35 250 29 203 38 250 51
250 8 -1 120 -16 248 -34z m1052 -148 c124 -17 229 -34 233 -39 9 -7 -51 -478
-62 -491 -5 -5 -491 58 -498 65 -1 1 14 110 33 242 18 132 34 243 34 248 0 11
19 9 260 -25z m1049 -148 c118 -16 216 -32 219 -34 6 -7 -60 -479 -69 -490 -6
-7 -437 46 -475 59 -7 2 0 79 23 242 19 131 35 243 38 249 2 6 14 10 27 8 13
-2 119 -18 237 -34z m1011 -141 c129 -18 239 -36 244 -40 9 -8 -51 -477 -63
-491 -5 -6 -490 57 -496 64 -5 6 69 498 74 498 3 0 112 -14 241 -31z"/>
<path d="M3222 11460 c-75 -54 -98 -114 -69 -183 14 -33 67 -101 73 -94 6 6
46 287 42 298 -2 6 -23 -4 -46 -21z"/>
<path d="M3106 11003 c3 -15 22 -53 42 -83 34 -53 36 -54 43 -30 15 53 10 65
-41 103 l-51 38 7 -28z"/>
<path d="M3370 10726 c0 -11 289 -166 310 -166 5 0 10 15 10 33 0 53 8 58 75
47 100 -17 104 -11 15 26 -50 20 -94 32 -107 29 -12 -3 -83 4 -158 15 -152 22
-145 22 -145 16z"/>
<path d="M4173 10448 c-6 -40 -8 -76 -4 -79 12 -13 488 -159 516 -159 13 0 19
23 31 118 5 42 4 52 -8 52 -8 0 -126 32 -261 70 -135 39 -250 70 -255 70 -5 0
-14 -33 -19 -72z"/>
<path d="M3395 10456 c-3 -17 -82 -578 -176 -1246 -93 -668 -352 -2510 -574
-4094 -433 -3079 -424 -3004 -390 -3165 69 -328 306 -595 621 -700 79 -27 375
-70 2480 -367 2369 -333 2390 -336 2519 -331 172 7 280 39 440 131 104 61 267
227 328 336 97 174 53 -107 657 4195 303 2156 564 4016 581 4133 17 118 29
216 26 218 -3 3 -54 -4 -113 -15 -314 -58 -576 -76 -1119 -75 -460 0 -647 7
-1095 45 -1579 131 -3211 495 -4052 903 l-128 62 -5 -30z m3115 -2009 c612
-118 1112 -424 1478 -905 231 -304 382 -650 453 -1042 27 -145 37 -496 20
-651 -104 -912 -700 -1672 -1557 -1987 -237 -87 -470 -130 -744 -139 -1123
-34 -2119 726 -2383 1818 -51 208 -62 307 -62 559 0 249 11 344 60 555 225
961 1027 1677 2030 1814 39 5 183 8 320 7 220 -3 266 -7 385 -29z"/>
<path d="M5996 7923 c-2 -2 -59 -7 -272 -23 -90 -7 -145 -17 -215 -40 -175
-58 -395 -175 -542 -287 -87 -67 -248 -224 -320 -313 -115 -143 -143 -194
-217 -403 -9 -26 -20 -50 -24 -54 -3 -3 -6 -14 -6 -23 0 -9 -8 -32 -17 -51
-10 -19 -18 -38 -18 -44 -4 -30 -19 -76 -26 -81 -5 -3 -7 -9 -4 -14 3 -5 -1
-23 -10 -40 -9 -17 -13 -35 -10 -40 3 -6 1 -10 -6 -10 -7 0 -9 -10 -6 -27 3
-15 1 -34 -3 -42 -17 -34 -53 -230 -58 -317 -14 -260 62 -584 199 -854 246
-484 683 -830 1211 -959 178 -44 290 -54 501 -48 281 8 512 64 753 182 830
409 1235 1365 949 2243 -157 479 -509 880 -960 1092 -214 101 -364 141 -545
147 -196 5 -351 8 -354 6z m68 -629 c3 -8 -17 -168 -44 -356 -46 -327 -53
-387 -51 -415 2 -19 32 -16 118 13 198 67 459 23 573 -97 89 -93 120 -183 119
-349 0 -158 -147 -1189 -171 -1204 -13 -8 -75 -2 -245 22 -125 17 -230 35
-235 40 -5 5 23 234 62 509 74 530 81 625 52 683 -20 42 -74 71 -117 63 -71
-13 -153 -83 -202 -173 -36 -66 -54 -156 -114 -585 -36 -260 -65 -433 -72
-437 -17 -11 -8 -11 -242 22 -116 16 -216 30 -222 30 -7 0 -15 11 -19 24 -7
29 294 2187 307 2201 6 6 72 11 147 13 75 2 138 4 139 5 1 1 49 3 107 3 79 1
106 -2 110 -12z"/>
<path d="M5207 10238 c-3 -13 -9 -53 -12 -90 l-7 -67 41 -11 c70 -19 459 -100
479 -100 21 0 26 14 37 117 l7 62 -38 6 c-63 11 -467 95 -485 100 -11 4 -18
-2 -22 -17z"/>
<path d="M6232 9974 c-6 -48 -9 -90 -7 -94 2 -4 24 -10 47 -13 24 -4 133 -20
243 -37 278 -41 250 -47 266 55 7 47 9 88 6 92 -5 5 -496 81 -533 83 -6 0 -16
-38 -22 -86z"/>
<path d="M10250 9975 c-47 -18 -132 -43 -190 -56 -58 -13 -111 -27 -117 -32
-7 -5 -13 -25 -13 -43 0 -19 -3 -34 -7 -34 -5 0 -71 9 -148 20 -110 16 -166
19 -258 14 -135 -8 -129 -3 -141 -107 l-7 -57 38 5 c21 3 83 10 138 16 130 13
369 61 476 95 152 48 274 119 312 184 22 36 24 36 -83 -5z"/>
<path d="M7274 9834 c-6 -49 -8 -92 -5 -95 5 -6 473 -49 527 -49 19 0 22 9 33
86 7 48 11 88 9 90 -2 2 -105 12 -228 24 -124 11 -248 23 -275 26 l-51 6 -10
-88z"/>
<path d="M8337 9812 c-3 -15 -9 -55 -13 -90 l-7 -62 279 2 279 3 10 77 11 76
-165 6 c-92 3 -216 8 -277 11 l-112 4 -5 -27z"/>
<path d="M2885 1024 c171 -122 393 -218 591 -253 33 -6 860 -124 1839 -262
1916 -270 1980 -278 2177 -250 98 14 267 57 323 82 l40 18 -57 0 c-71 1 -4812
667 -4889 687 -79 20 -80 19 -24 -22z"/>
</g>
</svg>
